<?xml version="1.0" encoding="UTF-8" standalone="no"?>
<!-- Created with Inkscape (http://www.inkscape.org/) -->

<svg
   xmlns:dc="http://purl.org/dc/elements/1.1/"
   xmlns:cc="http://creativecommons.org/ns#"
   xmlns:rdf="http://www.w3.org/1999/02/22-rdf-syntax-ns#"
   xmlns:svg="http://www.w3.org/2000/svg"
   xmlns="http://www.w3.org/2000/svg"
   xmlns:sodipodi="http://sodipodi.sourceforge.net/DTD/sodipodi-0.dtd"
   xmlns:inkscape="http://www.inkscape.org/namespaces/inkscape"
   width="500"
   height="500"
   id="svg2"
   version="1.1"
   inkscape:version="0.48.2 r9819"
   sodipodi:docname="New document 1">
  <defs
     id="defs4" />
  <sodipodi:namedview
     id="base"
     pagecolor="#ffffff"
     bordercolor="#666666"
     borderopacity="1.0"
     inkscape:pageopacity="0.0"
     inkscape:pageshadow="2"
     inkscape:zoom="0.7"
     inkscape:cx="250.06833"
     inkscape:cy="262.89687"
     inkscape:document-units="px"
     inkscape:current-layer="layer1"
     showgrid="false"
     inkscape:window-width="1920"
     inkscape:window-height="1046"
     inkscape:window-x="0"
     inkscape:window-y="24"
     inkscape:window-maximized="1" />
  <metadata
     id="metadata7">
    <rdf:RDF>
      <cc:Work
         rdf:about="">
        <dc:format>image/svg+xml</dc:format>
        <dc:type
           rdf:resource="http://purl.org/dc/dcmitype/StillImage" />
        <dc:title></dc:title>
      </cc:Work>
    </rdf:RDF>
  </metadata>
  <g
     inkscape:label="Layer 1"
     inkscape:groupmode="layer"
     id="layer1"
     transform="translate(0,-552.36218)">
    <rect
       style="fill:#000000;fill-opacity:1;fill-rule:nonzero;stroke:none"
       id="rect3867"
       width="500"
       height="500"
       x="0"
       y="552.36218" />
    <path
       style="fill:#ffffff;fill-opacity:1;stroke:none"
       d="m 479.32145,1065.2193 -201.4286,-544.28569 -27.85714,0 0,541.42859 z"
       id="path3865-4"
       inkscape:connector-curvature="0" />
    <path
       style="fill:#ffffff;fill-opacity:1;stroke:none"
       d="m 20.982145,1075.755 201.428595,-544.28568 27.85714,0 0,541.42858 z"
       id="path3865"
       inkscape:connector-curvature="0" />
    <g
       id="g3825"
       transform="translate(0.3112925,0)">
      <g
         transform="translate(41.50052,20.142857)"
         id="g3795">
        <path
           style="fill:#afbcc6;fill-opacity:1;fill-rule:nonzero;stroke:none"
           d="m 155.84438,877.46073 c -24.15974,-21.77778 -32.01919,-29.13846 -31.95359,-29.92577 0.0709,-0.85144 82.99142,-267.82163 84.48819,-272.01757 0.26564,-0.74467 0.46678,66.85619 0.4903,164.78114 l 0.0399,166.04383 -10.51209,0 -10.51209,0 -32.04059,-28.88163 0,0 z"
           id="path3006"
           inkscape:connector-curvature="0" />
        <path
           style="fill:#718a9f;fill-opacity:1;fill-rule:nonzero;stroke:none"
           d="m 261.15458,877.47601 c 24.15974,-21.77778 32.01919,-29.13846 31.95359,-29.92577 -0.0709,-0.85144 -82.99142,-267.82163 -84.48819,-272.01757 -0.26564,-0.74467 -0.46678,66.85619 -0.4903,164.78114 l -0.0399,166.04383 10.51209,0 10.51209,0 32.04059,-28.88163 0,0 z"
           id="path3006-9"
           inkscape:connector-curvature="0" />
      </g>
      <g
         id="g3821">
        <path
           style="fill:#ffed98;fill-opacity:1;fill-rule:nonzero;stroke:none"
           d="m 113.74235,1007.235 -1.75469,-6.5179 -8.49489,-0.1785 -8.494885,-0.1786 68.166685,-37.05361 68.16669,-37.05357 9.17595,0 9.17595,0 0,39.15279 0,39.15279 -1.33928,-0.1987 c -0.73661,-0.1094 -26.05835,-2.736 -56.27054,-5.83713 -43.36134,-4.4507 -54.99017,-5.543 -55.21095,-5.1857 -0.15383,0.2489 -1.46954,4.9443 -2.9238,10.43423 l -2.64412,9.9818 -7.89871,0 -7.89871,0 -1.7547,-6.5179 0,0 z"
           id="path3801"
           inkscape:connector-curvature="0" />
        <path
           style="fill:#ffcf54;fill-opacity:1;fill-rule:nonzero;stroke:none"
           d="m 385.63507,1007.2353 1.75469,-6.5179 8.49489,-0.1785 8.49488,-0.1786 -68.16668,-37.05359 -68.1667,-37.05357 -9.17595,0 -9.17595,0 0,39.15279 0,39.15277 1.33928,-0.1987 c 0.73661,-0.1094 26.05835,-2.736 56.27055,-5.83711 43.36134,-4.4507 54.99017,-5.543 55.21095,-5.1857 0.15383,0.2489 1.46954,4.9443 2.9238,10.43421 l 2.64412,9.9818 7.89871,0 7.89871,0 1.7547,-6.5179 0,0 z"
           id="path3801-2"
           inkscape:connector-curvature="0" />
      </g>
    </g>
  </g>
</svg>
